<svg width="48" height="48" fill="none" xmlns="http://www.w3.org/2000/svg">
  <g id="takodachi">
    <g id="Group 1">
      <g id="Vector 5">
        <path d="M17 37.01c-3 0-3.5-4-3.5-4H21s-1 4-4 4zM35 33.01h-8s1 4 4 4 4-4 4-4z" fill="#444773"/>
        <path d="M17 37.01c-3 0-3.5-4-3.5-4H21s-1 4-4 4zM35 33.01h-8s1 4 4 4 4-4 4-4z" stroke="#000"/>
      </g>
      <g id="body">
        <g filter="url(#filter0_ii)">
          <path d="M8 22.01c-1 2-2 6-2 8s0 3 1 5 2 3 4.5 3 3.5-4.5 5.5-4.5 2.5 4.5 6.5 4.5 5-4.5 7-4.5 4 2.5 8.5 2.5 3.3-5 3-6.5c-.3-1.5-1.5-4-3-6.5s-4-6.5-4-6.5 1-.5 2-1.5 1-1.5 1-2.5-.5-3-2-3-4.5 2.5-4.5 2.5-3-1.5-8.5-1.5-8 2-8 2-4-3.75-5-3.5-2 1.5-2 2.5 0 2 1.5 3 2 1 2 1-2.5 4.5-3.5 6.5z" fill="#8074A9"/>
        </g>
        <path d="M8 22.01c-1 2-2 6-2 8s0 3 1 5 2 3 4.5 3 3.5-4.5 5.5-4.5 2.5 4.5 6.5 4.5 5-4.5 7-4.5 4 2.5 8.5 2.5 3.3-5 3-6.5c-.3-1.5-1.5-4-3-6.5s-4-6.5-4-6.5 1-.5 2-1.5 1-1.5 1-2.5-.5-3-2-3-4.5 2.5-4.5 2.5-3-1.5-8.5-1.5-8 2-8 2-4-3.75-5-3.5-2 1.5-2 2.5 0 2 1.5 3 2 1 2 1-2.5 4.5-3.5 6.5z" stroke="#000" stroke-width="1.5"/>
      </g>
      <g id="eyes" filter="url(#filter1_d)">
        <path d="M26 17.51s1 0 2 .5 2 1.5 2 1.5m-16.5 0s1-1 2-1.5 2-.5 2-.5" stroke="#000" stroke-width="1.5" stroke-linecap="round"/>
      </g>
      <path id="mouth" d="M26.69 22.25a10.39 10.39 0 01-.3 1.06 5.54 5.54 0 01-1.07 2.03 5.56 5.56 0 01-3.99 1.42c-.8 0-1.34-.12-1.8-.35a5.35 5.35 0 01-1.35-1.07 5.54 5.54 0 01-1.07-2.03 13.09 13.09 0 01-.32-1.13l.04-.02a31.23 31.23 0 002.28-.92 14.72 14.72 0 002.15-1.36l.06-.05a27.25 27.25 0 00.82.69c.54.44 1.22.95 1.75 1.22.54.27 1.33.4 1.96.46.32.03.6.05.81.05h.03z" fill="#8D2B46" stroke="#000" stroke-width=".5"/>
      <path id="mouth_2" d="M27.5 22.01c-4.5.5-6.17-2.5-6.17-2.5s-2.83 3-5.83 2.5" stroke="#000" stroke-linecap="round"/>
      <path id="tongue" d="M21.5 22.26a4.08 4.08 0 013.5 1.98c.18.3.25.58.25.77 0 .15-.1.33-.33.55-.24.21-.58.42-.98.6-.8.36-1.81.6-2.6.6-1.59 0-3.14-.95-3.6-2.33-.1-.31-.08-.58.05-.83.12-.25.36-.48.71-.68.7-.41 1.78-.66 3-.66z" fill="#FF8B9F" stroke="#000" stroke-width=".5"/>
      <path id="tooth" d="M24 22.01l-1-.5s0 1.2 1 2l1.5-1.5s-.5.5-1.5 0z" fill="#fff" stroke="#000" stroke-width=".5"/>
      <g id="blush" filter="url(#filter2_d)" fill="#F19AFF">
        <path d="M12.5 21.01c-1.5 0-2 .5-2 1.5s.5 1.5 2 1.5 2.5-.5 2.5-1.5-1-1.5-2.5-1.5zM33.5 22.01c0-1-1-1.5-2.5-1.5s-2 .5-2 1.5.5 1.5 2 1.5 2.5-.5 2.5-1.5z"/>
      </g>
    </g>
  </g>
  <defs>
    <filter id="filter0_ii" x="3.25" y="6.25" width="41.87" height="34.51" filterUnits="userSpaceOnUse" color-interpolation-filters="sRGB">
      <feFlood flood-opacity="0" result="BackgroundImageFix"/>
      <feBlend in="SourceGraphic" in2="BackgroundImageFix" result="shape"/>
      <feColorMatrix in="SourceAlpha" values="0 0 0 0 0 0 0 0 0 0 0 0 0 0 0 0 0 0 127 0" result="hardAlpha"/>
      <feOffset dx="2" dy="2"/>
      <feGaussianBlur stdDeviation="1"/>
      <feComposite in2="hardAlpha" operator="arithmetic" k2="-1" k3="1"/>
      <feColorMatrix values="0 0 0 0 0.938592 0 0 0 0 0.81125 0 0 0 0 0.983333 0 0 0 0.25 0"/>
      <feBlend in2="shape" result="effect1_innerShadow"/>
      <feColorMatrix in="SourceAlpha" values="0 0 0 0 0 0 0 0 0 0 0 0 0 0 0 0 0 0 127 0" result="hardAlpha"/>
      <feOffset dx="-2" dy="-2"/>
      <feGaussianBlur stdDeviation="1"/>
      <feComposite in2="hardAlpha" operator="arithmetic" k2="-1" k3="1"/>
      <feColorMatrix values="0 0 0 0 0 0 0 0 0 0 0 0 0 0 0 0 0 0 0.25 0"/>
      <feBlend in2="effect1_innerShadow" result="effect2_innerShadow"/>
    </filter>
    <filter id="filter1_d" x="8.75" y="16.76" width="26" height="11.5" filterUnits="userSpaceOnUse" color-interpolation-filters="sRGB">
      <feFlood flood-opacity="0" result="BackgroundImageFix"/>
      <feColorMatrix in="SourceAlpha" values="0 0 0 0 0 0 0 0 0 0 0 0 0 0 0 0 0 0 127 0"/>
      <feOffset dy="4"/>
      <feGaussianBlur stdDeviation="2"/>
      <feColorMatrix values="0 0 0 0 0 0 0 0 0 0 0 0 0 0 0 0 0 0 0.25 0"/>
      <feBlend in2="BackgroundImageFix" result="effect1_dropShadow"/>
      <feBlend in="SourceGraphic" in2="effect1_dropShadow" result="shape"/>
    </filter>
    <filter id="filter2_d" x="4.5" y="14.51" width="35" height="15.5" filterUnits="userSpaceOnUse" color-interpolation-filters="sRGB">
      <feFlood flood-opacity="0" result="BackgroundImageFix"/>
      <feColorMatrix in="SourceAlpha" values="0 0 0 0 0 0 0 0 0 0 0 0 0 0 0 0 0 0 127 0"/>
      <feOffset/>
      <feGaussianBlur stdDeviation="3"/>
      <feColorMatrix values="0 0 0 0 0.956863 0 0 0 0 0.615686 0 0 0 0 1 0 0 0 1 0"/>
      <feBlend in2="BackgroundImageFix" result="effect1_dropShadow"/>
      <feBlend in="SourceGraphic" in2="effect1_dropShadow" result="shape"/>
    </filter>
  </defs>
</svg>