<svg width="64" height="64" fill="none" xmlns="http://www.w3.org/2000/svg">
  <g id="takodachi-bonk">
    <g id="Vector 6">
      <path d="M25 45.01c-3 0-3.5-4-3.5-4H29s-1 4-4 4zM43 41.01h-8s1 4 4 4 4-4 4-4z" fill="#444773"/>
      <path d="M25 45.01c-3 0-3.5-4-3.5-4H29s-1 4-4 4zM43 41.01h-8s1 4 4 4 4-4 4-4z" stroke="#000" stroke-width=".5"/>
    </g>
    <g id="body">
      <g filter="url(#filter0_ii)">
        <path d="M16 30.01c-1 2-2 6-2 8s0 3 1 5 2 3 4.5 3 3.5-4.5 5.5-4.5 2.5 4.5 6.5 4.5 5-4.5 7-4.5 4 2.5 8.5 2.5 3.3-5 3-6.5c-.3-1.5-1.5-4-3-6.5s-4-6.5-4-6.5 1-.5 2-1.5 1-1.5 1-2.5-.5-3-2-3-4.5 2.5-4.5 2.5-3-1.5-8.5-1.5-8 2-8 2-4-3.75-5-3.5-2 1.5-2 2.5 0 2 1.5 3 2 1 2 1-2.5 4.5-3.5 6.5z" fill="#8074A9"/>
      </g>
      <path d="M19.5 23.51l.44.24.41-.74h-.82-.02c-.04-.01-.13-.03-.26-.09-.27-.1-.74-.34-1.47-.82a2.66 2.66 0 01-1.12-1.26c-.16-.4-.16-.82-.16-1.33 0-.35.18-.8.52-1.22.32-.4.73-.7 1.1-.8v.01s.05 0 .2.06c.17.06.38.17.62.32.49.3 1.06.73 1.62 1.18a40.2 40.2 0 012.05 1.78l.04.03h0l.32.3.34-.27h0l.02-.01.07-.05.33-.2c.3-.18.76-.42 1.39-.66A16.5 16.5 0 0131 19c2.7 0 4.79.37 6.19.74a15.1 15.1 0 012.06.7h.02l.3.16.25-.21h0v-.01l.03-.02a17.96 17.96 0 013.03-2.02c.48-.22.86-.34 1.12-.34.48 0 .84.3 1.12.85.27.54.38 1.21.38 1.65 0 .52 0 .81-.1 1.1-.09.27-.28.58-.75 1.05a8.62 8.62 0 01-1.84 1.39l-.03.01h0l-.5.25.3.47.42-.27-.42.27h0l.02.04.09.13a560.1 560.1 0 013.88 6.32c1.5 2.5 2.66 4.93 2.94 6.34l.04.18c.16.82.45 2.22.26 3.46-.1.65-.34 1.2-.75 1.6-.4.38-1.03.66-2.06.66a11 11 0 01-4.97-1.2l-.72-.35c-.38-.2-.74-.37-1.07-.52a4.38 4.38 0 00-1.74-.43c-.7 0-1.26.4-1.72.85-.3.29-.62.66-.94 1.03l-.46.54c-.98 1.1-2.1 2.08-3.88 2.08-1.76 0-2.76-.97-3.6-2.05-.14-.17-.27-.36-.4-.54-.28-.37-.56-.75-.84-1.04-.42-.46-.95-.87-1.66-.87-.7 0-1.26.4-1.7.85-.4.4-.78.93-1.13 1.42l-.14.19c-.4.57-.8 1.08-1.23 1.46-.42.38-.84.58-1.3.58a4.08 4.08 0 01-2.52-.65 5.43 5.43 0 01-1.53-2.07 8.09 8.09 0 01-.83-2.36c-.12-.7-.12-1.4-.12-2.42 0-.94.24-2.39.61-3.88a20.7 20.7 0 011.34-3.9 151.55 151.55 0 013.38-6.28l.08-.14.02-.04v-.01h0l-.43-.25z" stroke="#000"/>
    </g>
    <g id="eyes" filter="url(#filter1_d)">
      <path d="M36.5 25s-4 1-3 1.5 4.5 1.01 4.5 1.01m-17 0s4-.51 5-1.01-3.5-1.5-3.5-1.5" stroke="#000" stroke-linecap="round"/>
    </g>
    <path id="mouth" d="M24.84 30.36a11.6 11.6 0 01-.05-.18l.04-.02a31.23 31.23 0 002.28-.92 14.72 14.72 0 002.15-1.36l.06-.05a27.25 27.25 0 00.82.69c.54.44 1.22.95 1.75 1.22.54.27 1.33.4 1.96.46.32.03.6.05.81.05h.03a10.39 10.39 0 01-.3 1.06 5.54 5.54 0 01-1.07 2.03 5.56 5.56 0 01-3.99 1.42c-.8 0-1.34-.12-1.8-.35a5.35 5.35 0 01-1.35-1.07 5.54 5.54 0 01-1.07-2.03c-.12-.37-.21-.7-.27-.95z" fill="#8D2B46" stroke="#000" stroke-width=".5"/>
    <path id="mouth_2" d="M35.5 30.01c-4.5.5-6.17-2.5-6.17-2.5s-2.83 3-5.83 2.5" stroke="#000" stroke-width=".5" stroke-linecap="round"/>
    <path id="tongue" d="M29.5 30.26a4.08 4.08 0 013.5 1.98c.18.3.25.58.25.77 0 .15-.1.33-.33.55-.24.21-.58.42-.98.6-.8.36-1.81.6-2.6.6-1.59 0-3.14-.95-3.6-2.33-.1-.31-.08-.58.05-.83.12-.25.36-.48.71-.68.7-.41 1.78-.66 3-.66z" fill="#FF8B9F" stroke="#000" stroke-width=".5"/>
    <path id="tooth" d="M32 30.01l-1-.5s0 1.2 1 2l1.5-1.5s-.5.5-1.5 0z" fill="#fff" stroke="#000" stroke-width=".5"/>
    <g id="blush" filter="url(#filter2_d)" fill="#F19AFF">
      <path d="M20.5 29.01c-1.5 0-2 .5-2 1.5s.5 1.5 2 1.5 2.5-.5 2.5-1.5-1-1.5-2.5-1.5zM41.5 30.01c0-1-1-1.5-2.5-1.5s-2 .5-2 1.5.5 1.5 2 1.5 2.5-.5 2.5-1.5z"/>
    </g>
  </g>
  <defs>
    <filter id="filter0_ii" x="12" y="15" width="40.37" height="33.01" filterUnits="userSpaceOnUse" color-interpolation-filters="sRGB">
      <feFlood flood-opacity="0" result="BackgroundImageFix"/>
      <feBlend in="SourceGraphic" in2="BackgroundImageFix" result="shape"/>
      <feColorMatrix in="SourceAlpha" values="0 0 0 0 0 0 0 0 0 0 0 0 0 0 0 0 0 0 127 0" result="hardAlpha"/>
      <feOffset dx="2" dy="2"/>
      <feGaussianBlur stdDeviation="1"/>
      <feComposite in2="hardAlpha" operator="arithmetic" k2="-1" k3="1"/>
      <feColorMatrix values="0 0 0 0 0.938592 0 0 0 0 0.81125 0 0 0 0 0.983333 0 0 0 0.25 0"/>
      <feBlend in2="shape" result="effect1_innerShadow"/>
      <feColorMatrix in="SourceAlpha" values="0 0 0 0 0 0 0 0 0 0 0 0 0 0 0 0 0 0 127 0" result="hardAlpha"/>
      <feOffset dx="-2" dy="-2"/>
      <feGaussianBlur stdDeviation="1"/>
      <feComposite in2="hardAlpha" operator="arithmetic" k2="-1" k3="1"/>
      <feColorMatrix values="0 0 0 0 0 0 0 0 0 0 0 0 0 0 0 0 0 0 0.25 0"/>
      <feBlend in2="effect1_innerShadow" result="effect2_innerShadow"/>
    </filter>
    <filter id="filter1_d" x="16.5" y="24.5" width="26" height="11.51" filterUnits="userSpaceOnUse" color-interpolation-filters="sRGB">
      <feFlood flood-opacity="0" result="BackgroundImageFix"/>
      <feColorMatrix in="SourceAlpha" values="0 0 0 0 0 0 0 0 0 0 0 0 0 0 0 0 0 0 127 0"/>
      <feOffset dy="4"/>
      <feGaussianBlur stdDeviation="2"/>
      <feColorMatrix values="0 0 0 0 0 0 0 0 0 0 0 0 0 0 0 0 0 0 0.25 0"/>
      <feBlend in2="BackgroundImageFix" result="effect1_dropShadow"/>
      <feBlend in="SourceGraphic" in2="effect1_dropShadow" result="shape"/>
    </filter>
    <filter id="filter2_d" x="12.5" y="22.51" width="35" height="15.5" filterUnits="userSpaceOnUse" color-interpolation-filters="sRGB">
      <feFlood flood-opacity="0" result="BackgroundImageFix"/>
      <feColorMatrix in="SourceAlpha" values="0 0 0 0 0 0 0 0 0 0 0 0 0 0 0 0 0 0 127 0"/>
      <feOffset/>
      <feGaussianBlur stdDeviation="3"/>
      <feColorMatrix values="0 0 0 0 0.956863 0 0 0 0 0.615686 0 0 0 0 1 0 0 0 1 0"/>
      <feBlend in2="BackgroundImageFix" result="effect1_dropShadow"/>
      <feBlend in="SourceGraphic" in2="effect1_dropShadow" result="shape"/>
    </filter>
  </defs>
</svg>